<svg id="visual" viewBox="0 0 450 900" width="450" height="900" xmlns="http://www.w3.org/2000/svg" xmlns:xlink="http://www.w3.org/1999/xlink" version="1.1"><rect width="450" height="900" fill="#F5F7FB"></rect><g><g transform="translate(73 504)"><path d="M114.9 -129.7C149.4 -108.1 178 -72.2 177.3 -37C176.6 -1.8 146.6 32.8 123.8 70.6C100.9 108.5 85.2 149.6 57 162.3C28.9 174.9 -11.6 159.1 -48.2 141.7C-84.9 124.4 -117.6 105.6 -139.6 76.3C-161.6 47 -172.9 7.3 -170.6 -34.3C-168.3 -75.9 -152.4 -119.3 -121.7 -141.5C-91 -163.8 -45.5 -164.9 -2.6 -161.7C40.2 -158.6 80.5 -151.2 114.9 -129.7Z" fill="#DEEBF8"></path></g><g transform="translate(280 34)"><path d="M110.3 -128.8C141 -105.8 162.4 -69.1 160.3 -35.1C158.1 -1.1 132.3 30.2 111.7 63.2C91.1 96.1 75.6 130.7 48.4 146.5C21.1 162.4 -17.9 159.4 -57.6 149C-97.4 138.6 -137.8 120.7 -164.2 88.3C-190.6 55.9 -203 9 -188.5 -26.3C-174 -61.5 -132.5 -85 -96.6 -107.1C-60.7 -129.2 -30.4 -149.9 4.7 -155.6C39.8 -161.2 79.7 -151.8 110.3 -128.8Z" fill="#DEEBF8"></path></g></g></svg>